<svg xmlns="http://www.w3.org/2000/svg" fill="none" viewBox="160.5 198.5 1522.35 323">
<path d="M325.935 199H387.16C395.513 199 402.986 204.191 405.902 212.018L459.642 356.276C460.056 357.389 460.061 358.613 459.656 359.729L459.354 360.558L459.352 360.566L405.838 507.831C402.965 515.737 395.452 521 387.04 521H325.825C322.382 521 319.97 517.602 321.104 514.352L376.284 356.276L321.239 205.717C320.047 202.455 322.462 199 325.935 199Z" fill="white"/>
<path d="M166.115 199H227.339C235.692 199 243.165 204.191 246.081 212.018L299.821 356.276C300.235 357.389 300.24 358.613 299.835 359.729L299.533 360.558L299.53 360.566L246.017 507.831C243.144 515.737 235.631 521 227.22 521H166.004C162.562 521 160.149 517.602 161.283 514.352L216.463 356.276L161.419 205.717C160.226 202.455 162.641 199 166.115 199Z" fill="white"/>
<path d="M376.284 356.276L321.239 205.717C320.047 202.455 322.462 199 325.935 199H387.16C395.513 199 402.986 204.191 405.902 212.018L459.642 356.276C460.056 357.389 460.061 358.613 459.656 359.729L405.838 507.831C402.965 515.737 395.452 521 387.04 521H325.825C322.382 521 319.97 517.602 321.104 514.352L347.534 438.638L376.284 356.276ZM376.284 356.276L321.308 514.249C320.086 517.517 322.502 521 325.991 521H387.04M376.284 356.276L321.31 205.752C320.087 202.484 322.503 199 325.993 199H387.16M376.284 356.276L321.104 514.352C319.97 517.602 322.382 521 325.825 521H387.04M376.284 356.276L321.239 205.717C320.047 202.455 322.462 199 325.935 199H387.16M387.16 199C395.513 199 402.986 204.191 405.902 212.018L459.642 356.276M459.642 356.276C460.056 357.389 460.061 358.613 459.656 359.729M459.642 356.276L459.652 358.838C459.654 359.425 459.554 360.007 459.354 360.558M459.656 359.729L405.838 507.831M459.656 359.729L459.354 360.558M405.838 507.831C402.965 515.737 395.452 521 387.04 521M405.838 507.831L459.352 360.566L459.354 360.558M216.463 356.276L161.283 514.352C160.149 517.602 162.562 521 166.004 521H227.22C235.631 521 243.144 515.737 246.017 507.831L299.53 360.566L299.533 360.558L299.835 359.729C300.24 358.613 300.235 357.389 299.821 356.276L246.081 212.018C243.165 204.191 235.692 199 227.339 199H166.115C162.641 199 160.226 202.455 161.419 205.717L216.463 356.276Z" stroke="white"/>
<path d="M364.284 322.5H287.784V392.5H364.284L376.784 356.5L364.284 322.5Z" fill="white" stroke="white"/>
<path d="M579.75 455V276.25H616V346.25H686.25V276.25H722.5V455H686.25V376.25H616V455H579.75ZM749.916 497V470.25H761.916C774.583 470.25 780.916 464.417 780.916 452.75C780.916 447.083 777.666 435.5 771.166 418L736.666 326.75H772.416L791.416 384.5L799.666 412.5H800.166C802.499 401.667 804.999 392.333 807.666 384.5L825.666 326.75H859.916L815.166 458.25C810.166 472.917 804.499 483 798.166 488.5C791.999 494.167 782.583 497 769.916 497H749.916ZM871.434 497V326.75H904.184V342.75H904.934C914.434 329.75 927.017 323.25 942.684 323.25C959.517 323.25 973.017 329.5 983.184 342C993.35 354.5 998.434 370.833 998.434 391C998.434 411.667 993.35 428.167 983.184 440.5C973.017 452.667 959.6 458.75 942.934 458.75C926.267 458.75 913.934 452.667 905.934 440.5H905.434V497H871.434ZM935.684 430.5C944.35 430.5 951.184 427.083 956.184 420.25C961.35 413.417 963.934 404 963.934 392C963.934 379.167 961.517 369.083 956.684 361.75C951.85 354.417 944.434 350.75 934.434 350.75C924.267 350.75 916.767 354.583 911.934 362.25C907.1 369.75 904.684 379.667 904.684 392C904.684 403.833 907.35 413.25 912.684 420.25C918.017 427.083 925.684 430.5 935.684 430.5ZM1074.51 458.75C1053.84 458.75 1037.59 452.417 1025.76 439.75C1013.92 426.917 1008.01 410.583 1008.01 390.75C1008.01 371.583 1013.92 355.583 1025.76 342.75C1037.59 329.75 1052.76 323.25 1071.26 323.25C1091.42 323.25 1107.01 330.25 1118.01 344.25C1129.01 358.25 1134.51 377 1134.51 400.5H1041.51C1042.84 410.667 1046.26 418.583 1051.76 424.25C1057.26 429.75 1064.76 432.5 1074.26 432.5C1086.76 432.5 1095.01 427.25 1099.01 416.75H1132.51C1130.01 428.75 1123.67 438.75 1113.51 446.75C1103.34 454.75 1090.34 458.75 1074.51 458.75ZM1071.76 349.5C1055.26 349.5 1045.34 358.667 1042.01 377H1099.01C1098.51 368.833 1095.76 362.25 1090.76 357.25C1085.76 352.083 1079.42 349.5 1071.76 349.5ZM1182.99 326.75V347.25H1183.74C1187.74 339.75 1192.16 334.25 1196.99 330.75C1201.83 327.083 1207.91 325.25 1215.24 325.25C1218.74 325.25 1221.41 325.583 1223.24 326.25V356H1222.49C1210.99 354.833 1201.74 357.333 1194.74 363.5C1187.74 369.667 1184.24 379.333 1184.24 392.5V455H1150.24V326.75H1182.99ZM1238.39 455V276.25H1272.39V455H1238.39ZM1375.52 455C1373.86 452.833 1372.52 448.083 1371.52 440.75H1371.02C1367.36 446.25 1362.69 450.5 1357.02 453.5C1351.36 456.5 1343.44 458 1333.27 458C1319.77 458 1308.94 454.583 1300.77 447.75C1292.61 440.917 1288.52 431.25 1288.52 418.75C1288.52 405.75 1293.02 396.25 1302.02 390.25C1311.02 384.083 1323.69 379.833 1340.02 377.5C1352.02 375.833 1360.19 374.167 1364.52 372.5C1368.86 370.667 1371.02 367.5 1371.02 363C1371.02 358.333 1369.19 354.667 1365.52 352C1361.86 349.167 1356.52 347.75 1349.52 347.75C1334.02 347.75 1325.77 353.75 1324.77 365.75H1294.52C1295.02 353.583 1299.94 343.5 1309.27 335.5C1318.61 327.5 1332.11 323.5 1349.77 323.5C1385.77 323.5 1403.77 339.25 1403.77 370.75V436C1403.77 445.667 1405.27 451.583 1408.27 453.75V455H1375.52ZM1341.52 434.25C1350.86 434.25 1358.19 431.833 1363.52 427C1369.02 422.167 1371.77 416.417 1371.77 409.75V390.5C1368.11 392.667 1360.19 395.167 1348.02 398C1338.36 400.167 1331.52 402.667 1327.52 405.5C1323.52 408.167 1321.52 412.333 1321.52 418C1321.52 428.833 1328.19 434.25 1341.52 434.25ZM1458.64 326.75V344.25H1459.39C1468.22 330.25 1480.89 323.25 1497.39 323.25C1510.56 323.25 1521.22 327.75 1529.39 336.75C1537.56 345.583 1541.64 357.083 1541.64 371.25V455H1507.64V376.25C1507.64 369.25 1505.64 363.583 1501.64 359.25C1497.81 354.917 1492.39 352.75 1485.39 352.75C1477.89 352.75 1471.64 355.5 1466.64 361C1461.81 366.5 1459.39 373.583 1459.39 382.25V455H1425.39V326.75H1458.64ZM1622.85 458.75C1602.18 458.75 1585.93 452.417 1574.1 439.75C1562.26 426.917 1556.35 410.583 1556.35 390.75C1556.35 371.583 1562.26 355.583 1574.1 342.75C1585.93 329.75 1601.1 323.25 1619.6 323.25C1639.76 323.25 1655.35 330.25 1666.35 344.25C1677.35 358.25 1682.85 377 1682.85 400.5H1589.85C1591.18 410.667 1594.6 418.583 1600.1 424.25C1605.6 429.75 1613.1 432.5 1622.6 432.5C1635.1 432.5 1643.35 427.25 1647.35 416.75H1680.85C1678.35 428.75 1672.01 438.75 1661.85 446.75C1651.68 454.75 1638.68 458.75 1622.85 458.75ZM1620.1 349.5C1603.6 349.5 1593.68 358.667 1590.35 377H1647.35C1646.85 368.833 1644.1 362.25 1639.1 357.25C1634.1 352.083 1627.76 349.5 1620.1 349.5Z" fill="white"/>
</svg>