<svg xmlns="http://www.w3.org/2000/svg" fill="none" viewBox="260.5 169.5 506.14 323">
<path d="M632.115 170H693.339C701.692 170 709.165 175.191 712.081 183.018L765.821 327.276C766.235 328.389 766.24 329.613 765.835 330.729L765.533 331.558L765.53 331.566L712.017 478.831C709.144 486.737 701.631 492 693.22 492H632.004C628.562 492 626.149 488.602 627.283 485.352L682.463 327.276L627.419 176.717C626.226 173.455 628.641 170 632.115 170Z" fill="black" stroke="black"/>
<path d="M449.115 170H510.339C518.692 170 526.165 175.191 529.081 183.018L582.821 327.276C583.235 328.389 583.24 329.613 582.835 330.729L582.533 331.558L582.53 331.566L529.017 478.831C526.144 486.737 518.631 492 510.22 492H449.004C445.562 492 443.149 488.602 444.283 485.352L499.463 327.276L444.419 176.717C443.226 173.455 445.641 170 449.115 170Z" fill="black" stroke="black"/>
<path d="M266.115 170H327.339C335.692 170 343.165 175.191 346.081 183.018L399.821 327.276C400.235 328.389 400.24 329.613 399.835 330.729L399.533 331.558L399.53 331.566L346.017 478.831C343.144 486.737 335.631 492 327.22 492H266.004C262.562 492 260.149 488.602 261.283 485.352L316.463 327.276L261.419 176.717C260.226 173.455 262.641 170 266.115 170Z" fill="black" stroke="black"/>
</svg>