<svg xmlns="http://www.w3.org/2000/svg" fill="none" viewBox="146.75 101.5 1103.1 638.5">
<path d="M715.935 102H777.16C785.513 102 792.986 107.191 795.902 115.018L849.642 259.276C850.056 260.389 850.061 261.613 849.656 262.729L849.354 263.558L849.352 263.566L795.838 410.831C792.965 418.737 785.452 424 777.04 424H715.825C712.382 424 709.97 420.602 711.104 417.352L766.284 259.276L711.239 108.717C710.047 105.455 712.462 102 715.935 102Z" fill="white"/>
<path d="M556.115 102H617.339C625.692 102 633.165 107.191 636.081 115.018L689.821 259.276C690.235 260.389 690.24 261.613 689.835 262.729L689.533 263.558L689.53 263.566L636.017 410.831C633.144 418.737 625.631 424 617.22 424H556.004C552.562 424 550.149 420.602 551.283 417.352L606.463 259.276L551.419 108.717C550.226 105.455 552.641 102 556.115 102Z" fill="white"/>
<path d="M766.284 259.276L711.239 108.717C710.047 105.455 712.462 102 715.935 102H777.16C785.513 102 792.986 107.191 795.902 115.018L849.642 259.276C850.056 260.389 850.061 261.613 849.656 262.729L795.838 410.831C792.965 418.737 785.452 424 777.04 424H715.825C712.382 424 709.97 420.602 711.104 417.352L737.534 341.638L766.284 259.276ZM766.284 259.276L711.308 417.249C710.086 420.517 712.502 424 715.991 424H777.04M766.284 259.276L711.31 108.752C710.087 105.484 712.503 102 715.993 102H777.16M766.284 259.276L711.104 417.352C709.97 420.602 712.382 424 715.825 424H777.04M766.284 259.276L711.239 108.717C710.047 105.455 712.462 102 715.935 102H777.16M777.16 102C785.513 102 792.986 107.191 795.902 115.018L849.642 259.276M849.642 259.276C850.056 260.389 850.061 261.613 849.656 262.729M849.642 259.276L849.652 261.838C849.654 262.425 849.554 263.007 849.354 263.558M849.656 262.729L795.838 410.831M849.656 262.729L849.354 263.558M795.838 410.831C792.965 418.737 785.452 424 777.04 424M795.838 410.831L849.352 263.566L849.354 263.558M606.463 259.276L551.283 417.352C550.149 420.602 552.562 424 556.004 424H617.22C625.631 424 633.144 418.737 636.017 410.831L689.53 263.566L689.533 263.558L689.835 262.729C690.24 261.613 690.235 260.389 689.821 259.276L636.081 115.018C633.165 107.191 625.692 102 617.339 102H556.115C552.641 102 550.226 105.455 551.419 108.717L606.463 259.276Z" stroke="white"/>
<path d="M754.284 225.5H677.784V295.5H754.284L766.784 259.5L754.284 225.5Z" fill="white" stroke="white"/>
<path d="M146.75 698V519.25H183V589.25H253.25V519.25H289.5V698H253.25V619.25H183V698H146.75ZM316.916 740V713.25H328.916C341.583 713.25 347.916 707.417 347.916 695.75C347.916 690.083 344.666 678.5 338.166 661L303.666 569.75H339.416L358.416 627.5L366.666 655.5H367.166C369.499 644.667 371.999 635.333 374.666 627.5L392.666 569.75H426.916L382.166 701.25C377.166 715.917 371.499 726 365.166 731.5C358.999 737.167 349.583 740 336.916 740H316.916ZM438.434 740V569.75H471.184V585.75H471.934C481.434 572.75 494.017 566.25 509.684 566.25C526.517 566.25 540.017 572.5 550.184 585C560.35 597.5 565.434 613.833 565.434 634C565.434 654.667 560.35 671.167 550.184 683.5C540.017 695.667 526.6 701.75 509.934 701.75C493.267 701.75 480.934 695.667 472.934 683.5H472.434V740H438.434ZM502.684 673.5C511.35 673.5 518.184 670.083 523.184 663.25C528.35 656.417 530.934 647 530.934 635C530.934 622.167 528.517 612.083 523.684 604.75C518.85 597.417 511.434 593.75 501.434 593.75C491.267 593.75 483.767 597.583 478.934 605.25C474.1 612.75 471.684 622.667 471.684 635C471.684 646.833 474.35 656.25 479.684 663.25C485.017 670.083 492.684 673.5 502.684 673.5ZM641.506 701.75C620.839 701.75 604.589 695.417 592.756 682.75C580.923 669.917 575.006 653.583 575.006 633.75C575.006 614.583 580.923 598.583 592.756 585.75C604.589 572.75 619.756 566.25 638.256 566.25C658.423 566.25 674.006 573.25 685.006 587.25C696.006 601.25 701.506 620 701.506 643.5H608.506C609.839 653.667 613.256 661.583 618.756 667.25C624.256 672.75 631.756 675.5 641.256 675.5C653.756 675.5 662.006 670.25 666.006 659.75H699.506C697.006 671.75 690.673 681.75 680.506 689.75C670.339 697.75 657.339 701.75 641.506 701.75ZM638.756 592.5C622.256 592.5 612.339 601.667 609.006 620H666.006C665.506 611.833 662.756 605.25 657.756 600.25C652.756 595.083 646.423 592.5 638.756 592.5ZM749.992 569.75V590.25H750.742C754.742 582.75 759.159 577.25 763.992 573.75C768.826 570.083 774.909 568.25 782.242 568.25C785.742 568.25 788.409 568.583 790.242 569.25V599H789.492C777.992 597.833 768.742 600.333 761.742 606.5C754.742 612.667 751.242 622.333 751.242 635.5V698H717.242V569.75H749.992ZM805.389 698V519.25H839.389V698H805.389ZM942.523 698C940.857 695.833 939.523 691.083 938.523 683.75H938.023C934.357 689.25 929.69 693.5 924.023 696.5C918.357 699.5 910.44 701 900.273 701C886.773 701 875.94 697.583 867.773 690.75C859.607 683.917 855.523 674.25 855.523 661.75C855.523 648.75 860.023 639.25 869.023 633.25C878.023 627.083 890.69 622.833 907.023 620.5C919.023 618.833 927.19 617.167 931.523 615.5C935.857 613.667 938.023 610.5 938.023 606C938.023 601.333 936.19 597.667 932.523 595C928.857 592.167 923.523 590.75 916.523 590.75C901.023 590.75 892.773 596.75 891.773 608.75H861.523C862.023 596.583 866.94 586.5 876.273 578.5C885.607 570.5 899.107 566.5 916.773 566.5C952.773 566.5 970.773 582.25 970.773 613.75V679C970.773 688.667 972.273 694.583 975.273 696.75V698H942.523ZM908.523 677.25C917.857 677.25 925.19 674.833 930.523 670C936.023 665.167 938.773 659.417 938.773 652.75V633.5C935.107 635.667 927.19 638.167 915.023 641C905.357 643.167 898.523 645.667 894.523 648.5C890.523 651.167 888.523 655.333 888.523 661C888.523 671.833 895.19 677.25 908.523 677.25ZM1025.64 569.75V587.25H1026.39C1035.22 573.25 1047.89 566.25 1064.39 566.25C1077.56 566.25 1088.22 570.75 1096.39 579.75C1104.56 588.583 1108.64 600.083 1108.64 614.25V698H1074.64V619.25C1074.64 612.25 1072.64 606.583 1068.64 602.25C1064.81 597.917 1059.39 595.75 1052.39 595.75C1044.89 595.75 1038.64 598.5 1033.64 604C1028.81 609.5 1026.39 616.583 1026.39 625.25V698H992.389V569.75H1025.64ZM1189.85 701.75C1169.18 701.75 1152.93 695.417 1141.1 682.75C1129.26 669.917 1123.35 653.583 1123.35 633.75C1123.35 614.583 1129.26 598.583 1141.1 585.75C1152.93 572.75 1168.1 566.25 1186.6 566.25C1206.76 566.25 1222.35 573.25 1233.35 587.25C1244.35 601.25 1249.85 620 1249.85 643.5H1156.85C1158.18 653.667 1161.6 661.583 1167.1 667.25C1172.6 672.75 1180.1 675.5 1189.6 675.5C1202.1 675.5 1210.35 670.25 1214.35 659.75H1247.85C1245.35 671.75 1239.01 681.75 1228.85 689.75C1218.68 697.75 1205.68 701.75 1189.85 701.75ZM1187.1 592.5C1170.6 592.5 1160.68 601.667 1157.35 620H1214.35C1213.85 611.833 1211.1 605.25 1206.1 600.25C1201.1 595.083 1194.76 592.5 1187.1 592.5Z" fill="white"/>
</svg>