<svg xmlns="http://www.w3.org/2000/svg" fill="none" viewBox="374.75 282.25 1103.1 220.75">
<path d="M374.75 461V282.25H411V352.25H481.25V282.25H517.5V461H481.25V382.25H411V461H374.75ZM544.916 503V476.25H556.916C569.583 476.25 575.916 470.417 575.916 458.75C575.916 453.083 572.666 441.5 566.166 424L531.666 332.75H567.416L586.416 390.5L594.666 418.5H595.166C597.499 407.667 599.999 398.333 602.666 390.5L620.666 332.75H654.916L610.166 464.25C605.166 478.917 599.499 489 593.166 494.5C586.999 500.167 577.583 503 564.916 503H544.916ZM666.434 503V332.75H699.184V348.75H699.934C709.434 335.75 722.017 329.25 737.684 329.25C754.517 329.25 768.017 335.5 778.184 348C788.35 360.5 793.434 376.833 793.434 397C793.434 417.667 788.35 434.167 778.184 446.5C768.017 458.667 754.6 464.75 737.934 464.75C721.267 464.75 708.934 458.667 700.934 446.5H700.434V503H666.434ZM730.684 436.5C739.35 436.5 746.184 433.083 751.184 426.25C756.35 419.417 758.934 410 758.934 398C758.934 385.167 756.517 375.083 751.684 367.75C746.85 360.417 739.434 356.75 729.434 356.75C719.267 356.75 711.767 360.583 706.934 368.25C702.1 375.75 699.684 385.667 699.684 398C699.684 409.833 702.35 419.25 707.684 426.25C713.017 433.083 720.684 436.5 730.684 436.5ZM869.506 464.75C848.839 464.75 832.589 458.417 820.756 445.75C808.923 432.917 803.006 416.583 803.006 396.75C803.006 377.583 808.923 361.583 820.756 348.75C832.589 335.75 847.756 329.25 866.256 329.25C886.423 329.25 902.006 336.25 913.006 350.25C924.006 364.25 929.506 383 929.506 406.5H836.506C837.839 416.667 841.256 424.583 846.756 430.25C852.256 435.75 859.756 438.5 869.256 438.5C881.756 438.5 890.006 433.25 894.006 422.75H927.506C925.006 434.75 918.673 444.75 908.506 452.75C898.339 460.75 885.339 464.75 869.506 464.75ZM866.756 355.5C850.256 355.5 840.339 364.667 837.006 383H894.006C893.506 374.833 890.756 368.25 885.756 363.25C880.756 358.083 874.423 355.5 866.756 355.5ZM977.992 332.75V353.25H978.742C982.742 345.75 987.159 340.25 991.992 336.75C996.826 333.083 1002.91 331.25 1010.24 331.25C1013.74 331.25 1016.41 331.583 1018.24 332.25V362H1017.49C1005.99 360.833 996.742 363.333 989.742 369.5C982.742 375.667 979.242 385.333 979.242 398.5V461H945.242V332.75H977.992ZM1033.39 461V282.25H1067.39V461H1033.39ZM1170.52 461C1168.86 458.833 1167.52 454.083 1166.52 446.75H1166.02C1162.36 452.25 1157.69 456.5 1152.02 459.5C1146.36 462.5 1138.44 464 1128.27 464C1114.77 464 1103.94 460.583 1095.77 453.75C1087.61 446.917 1083.52 437.25 1083.52 424.75C1083.52 411.75 1088.02 402.25 1097.02 396.25C1106.02 390.083 1118.69 385.833 1135.02 383.5C1147.02 381.833 1155.19 380.167 1159.52 378.5C1163.86 376.667 1166.02 373.5 1166.02 369C1166.02 364.333 1164.19 360.667 1160.52 358C1156.86 355.167 1151.52 353.75 1144.52 353.75C1129.02 353.75 1120.77 359.75 1119.77 371.75H1089.52C1090.02 359.583 1094.94 349.5 1104.27 341.5C1113.61 333.5 1127.11 329.5 1144.77 329.5C1180.77 329.5 1198.77 345.25 1198.77 376.75V442C1198.77 451.667 1200.27 457.583 1203.27 459.75V461H1170.52ZM1136.52 440.25C1145.86 440.25 1153.19 437.833 1158.52 433C1164.02 428.167 1166.77 422.417 1166.77 415.75V396.5C1163.11 398.667 1155.19 401.167 1143.02 404C1133.36 406.167 1126.52 408.667 1122.52 411.5C1118.52 414.167 1116.52 418.333 1116.52 424C1116.52 434.833 1123.19 440.25 1136.52 440.25ZM1253.64 332.75V350.25H1254.39C1263.22 336.25 1275.89 329.25 1292.39 329.25C1305.56 329.25 1316.22 333.75 1324.39 342.75C1332.56 351.583 1336.64 363.083 1336.64 377.25V461H1302.64V382.25C1302.64 375.25 1300.64 369.583 1296.64 365.25C1292.81 360.917 1287.39 358.75 1280.39 358.75C1272.89 358.75 1266.64 361.5 1261.64 367C1256.81 372.5 1254.39 379.583 1254.39 388.25V461H1220.39V332.75H1253.64ZM1417.85 464.75C1397.18 464.75 1380.93 458.417 1369.1 445.75C1357.26 432.917 1351.35 416.583 1351.35 396.75C1351.35 377.583 1357.26 361.583 1369.1 348.75C1380.93 335.75 1396.1 329.25 1414.6 329.25C1434.76 329.25 1450.35 336.25 1461.35 350.25C1472.35 364.25 1477.85 383 1477.85 406.5H1384.85C1386.18 416.667 1389.6 424.583 1395.1 430.25C1400.6 435.75 1408.1 438.5 1417.6 438.5C1430.1 438.5 1438.35 433.25 1442.35 422.75H1475.85C1473.35 434.75 1467.01 444.75 1456.85 452.75C1446.68 460.75 1433.68 464.75 1417.85 464.75ZM1415.1 355.5C1398.6 355.5 1388.68 364.667 1385.35 383H1442.35C1441.85 374.833 1439.1 368.25 1434.1 363.25C1429.1 358.083 1422.76 355.5 1415.1 355.5Z" fill="black"/>
</svg>