<svg xmlns="http://www.w3.org/2000/svg" fill="none" viewBox="0 0 1857 759">
<rect width="1857" height="759" fill="white"/>
<path d="M374.75 453V274.25H411V344.25H481.25V274.25H517.5V453H481.25V374.25H411V453H374.75ZM544.916 495V468.25H556.916C569.583 468.25 575.916 462.417 575.916 450.75C575.916 445.083 572.666 433.5 566.166 416L531.666 324.75H567.416L586.416 382.5L594.666 410.5H595.166C597.499 399.667 599.999 390.333 602.666 382.5L620.666 324.75H654.916L610.166 456.25C605.166 470.917 599.499 481 593.166 486.5C586.999 492.167 577.583 495 564.916 495H544.916ZM666.434 495V324.75H699.184V340.75H699.934C709.434 327.75 722.017 321.25 737.684 321.25C754.517 321.25 768.017 327.5 778.184 340C788.35 352.5 793.434 368.833 793.434 389C793.434 409.667 788.35 426.167 778.184 438.5C768.017 450.667 754.6 456.75 737.934 456.75C721.267 456.75 708.934 450.667 700.934 438.5H700.434V495H666.434ZM730.684 428.5C739.35 428.5 746.184 425.083 751.184 418.25C756.35 411.417 758.934 402 758.934 390C758.934 377.167 756.517 367.083 751.684 359.75C746.85 352.417 739.434 348.75 729.434 348.75C719.267 348.75 711.767 352.583 706.934 360.25C702.1 367.75 699.684 377.667 699.684 390C699.684 401.833 702.35 411.25 707.684 418.25C713.017 425.083 720.684 428.5 730.684 428.5ZM869.506 456.75C848.839 456.75 832.589 450.417 820.756 437.75C808.923 424.917 803.006 408.583 803.006 388.75C803.006 369.583 808.923 353.583 820.756 340.75C832.589 327.75 847.756 321.25 866.256 321.25C886.423 321.25 902.006 328.25 913.006 342.25C924.006 356.25 929.506 375 929.506 398.5H836.506C837.839 408.667 841.256 416.583 846.756 422.25C852.256 427.75 859.756 430.5 869.256 430.5C881.756 430.5 890.006 425.25 894.006 414.75H927.506C925.006 426.75 918.673 436.75 908.506 444.75C898.339 452.75 885.339 456.75 869.506 456.75ZM866.756 347.5C850.256 347.5 840.339 356.667 837.006 375H894.006C893.506 366.833 890.756 360.25 885.756 355.25C880.756 350.083 874.423 347.5 866.756 347.5ZM977.992 324.75V345.25H978.742C982.742 337.75 987.159 332.25 991.992 328.75C996.826 325.083 1002.91 323.25 1010.24 323.25C1013.74 323.25 1016.41 323.583 1018.24 324.25V354H1017.49C1005.99 352.833 996.742 355.333 989.742 361.5C982.742 367.667 979.242 377.333 979.242 390.5V453H945.242V324.75H977.992ZM1033.39 453V274.25H1067.39V453H1033.39ZM1170.52 453C1168.86 450.833 1167.52 446.083 1166.52 438.75H1166.02C1162.36 444.25 1157.69 448.5 1152.02 451.5C1146.36 454.5 1138.44 456 1128.27 456C1114.77 456 1103.94 452.583 1095.77 445.75C1087.61 438.917 1083.52 429.25 1083.52 416.75C1083.52 403.75 1088.02 394.25 1097.02 388.25C1106.02 382.083 1118.69 377.833 1135.02 375.5C1147.02 373.833 1155.19 372.167 1159.52 370.5C1163.86 368.667 1166.02 365.5 1166.02 361C1166.02 356.333 1164.19 352.667 1160.52 350C1156.86 347.167 1151.52 345.75 1144.52 345.75C1129.02 345.75 1120.77 351.75 1119.77 363.75H1089.52C1090.02 351.583 1094.94 341.5 1104.27 333.5C1113.61 325.5 1127.11 321.5 1144.77 321.5C1180.77 321.5 1198.77 337.25 1198.77 368.75V434C1198.77 443.667 1200.27 449.583 1203.27 451.75V453H1170.52ZM1136.52 432.25C1145.86 432.25 1153.19 429.833 1158.52 425C1164.02 420.167 1166.77 414.417 1166.77 407.75V388.5C1163.11 390.667 1155.19 393.167 1143.02 396C1133.36 398.167 1126.52 400.667 1122.52 403.5C1118.52 406.167 1116.52 410.333 1116.52 416C1116.52 426.833 1123.19 432.25 1136.52 432.25ZM1253.64 324.75V342.25H1254.39C1263.22 328.25 1275.89 321.25 1292.39 321.25C1305.56 321.25 1316.22 325.75 1324.39 334.75C1332.56 343.583 1336.64 355.083 1336.64 369.25V453H1302.64V374.25C1302.64 367.25 1300.64 361.583 1296.64 357.25C1292.81 352.917 1287.39 350.75 1280.39 350.75C1272.89 350.75 1266.64 353.5 1261.64 359C1256.81 364.5 1254.39 371.583 1254.39 380.25V453H1220.39V324.75H1253.64ZM1417.85 456.75C1397.18 456.75 1380.93 450.417 1369.1 437.75C1357.26 424.917 1351.35 408.583 1351.35 388.75C1351.35 369.583 1357.26 353.583 1369.1 340.75C1380.93 327.75 1396.1 321.25 1414.6 321.25C1434.76 321.25 1450.35 328.25 1461.35 342.25C1472.35 356.25 1477.85 375 1477.85 398.5H1384.85C1386.18 408.667 1389.6 416.583 1395.1 422.25C1400.6 427.75 1408.1 430.5 1417.6 430.5C1430.1 430.5 1438.35 425.25 1442.35 414.75H1475.85C1473.35 426.75 1467.01 436.75 1456.85 444.75C1446.68 452.75 1433.68 456.75 1417.85 456.75ZM1415.1 347.5C1398.6 347.5 1388.68 356.667 1385.35 375H1442.35C1441.85 366.833 1439.1 360.25 1434.1 355.25C1429.1 350.083 1422.76 347.5 1415.1 347.5Z" fill="#2362C0"/>
</svg>